<svg width="128" height="116" viewBox="0 0 128 116" fill="none" xmlns="http://www.w3.org/2000/svg">
<path d="M93.3746 0.0385742L93.3746 77.7227H69.1257L69.1257 38.9904L57.1659 77.7227L36.3184 77.7227L24.3586 38.9904L24.3586 77.7227H0L0 0.0385742L29.8448 0.0385742L46.9616 46.671L63.6396 0.0385742L93.3746 0.0385742Z" fill="#F51717"/>
<path d="M128 0.000330418V86.7474C128 96.0373 125.55 103.096 120.649 107.924C115.821 112.679 109.018 115.056 100.24 115.056C90.804 115.056 83.3063 112.459 77.7469 107.266C72.1876 102.072 69.408 94.5012 69.408 84.553H93.4374C93.4374 87.6984 93.9494 89.9294 94.9735 91.2461C95.9976 92.4896 97.3874 93.1114 99.143 93.1114C100.606 93.1114 101.74 92.6359 102.544 91.685C103.349 90.734 103.751 89.0882 103.751 86.7474L103.751 0.000330418L128 0.000330418Z" fill="#F51717"/>
<path d="M55.2869 84.6938L49.9293 100.632H43.4687L38.1111 84.6938H43.4236L46.7102 95.6566L49.9743 84.6938H55.2869Z" fill="#1E1E1E"/>
<path d="M26.0877 88.6783V90.6367H31.0401V94.396H26.0877V96.6471H31.7154V100.632H21.0903V84.6938H31.7154V88.6783H26.0877Z" fill="#1E1E1E"/>
<path d="M6.6407 84.6938C8.3065 84.6938 9.7622 85.0315 11.0078 85.7068C12.2684 86.3822 13.2364 87.3201 13.9117 88.5207C14.587 89.7213 14.9247 91.0869 14.9247 92.6177C14.9247 94.1334 14.587 95.499 13.9117 96.7146C13.2364 97.9302 12.2684 98.8907 11.0078 99.596C9.7622 100.286 8.3065 100.632 6.6407 100.632H0V84.6938H6.6407ZM6.19048 96.1744C7.31602 96.1744 8.20895 95.8667 8.86927 95.2514C9.52959 94.6361 9.85975 93.7582 9.85975 92.6177C9.85975 91.4771 9.52959 90.5992 8.86927 89.9839C8.20895 89.3686 7.31602 89.0609 6.19048 89.0609H4.99741V96.1744H6.19048Z" fill="#1E1E1E"/>
</svg>
